<svg width="39" height="39" viewBox="0 0 39 39" fill="none" xmlns="http://www.w3.org/2000/svg">
<path d="M2.49871 0.311523C1.83284 0.601097 1.26509 1.07734 0.864093 1.68269C0.463099 2.28803 0.246025 2.99657 0.239109 3.72265L0.00011272 34.9732C-0.0037063 35.4659 0.0895524 35.9545 0.274564 36.4111C0.459575 36.8677 0.732716 37.2834 1.07839 37.6345C1.42406 37.9855 1.8355 38.2651 2.28921 38.4571C2.74291 38.6491 3.23 38.7499 3.72266 38.7537L21.2708 38.8913C-2.17258 29.766 2.49871 0.311523 2.49871 0.311523Z" fill="#010205"/>
<path d="M33.0613 10.8201C29.1939 11.1098 30.3816 10.6753 26.5432 10.7404C24.5515 10.7404 22.4875 11.1677 20.9521 12.5221C20.0711 13.3592 19.3755 14.3719 18.9102 15.4946C18.4449 16.6173 18.2202 17.8252 18.2507 19.0401C18.1768 20.3143 18.5814 21.5702 19.3852 22.5616C20.189 23.553 21.3342 24.2084 22.5961 24.3994C23.1563 24.4982 23.7225 24.5587 24.2908 24.5805C25.0483 24.5846 25.7838 24.3264 26.3726 23.8499C26.9613 23.3733 27.3671 22.7077 27.5209 21.966L28.6072 16.8964C29.5983 16.908 30.5745 17.1394 31.4654 17.5739C32.3563 18.0084 33.1396 18.6352 33.759 19.409C34.3783 20.1829 34.8182 21.0845 35.047 22.0489C35.2758 23.0133 35.2877 24.0165 35.0819 24.9861C35.0785 25.0004 35.0785 25.0152 35.0819 25.0295C34.7553 26.5722 34.0025 27.9924 32.9092 29.1287C34.8835 29.0942 36.8532 28.9248 38.8044 28.6217L38.9637 7.99561C38.3309 8.9371 37.4446 9.6803 36.4072 10.1393C35.3343 10.5396 34.2053 10.7693 33.0613 10.8201Z" fill="#5D50B6"/>
<path d="M8.88644 17.3817C9.06084 15.9996 9.40629 14.6446 9.91485 13.3477C10.009 13.1232 10.0959 12.8987 10.1973 12.6814L10.2408 12.5945C10.3325 12.3772 10.4339 12.1672 10.5449 11.9644C13.3694 6.38061 19.2936 2.955 26.8691 3.04915C27.2457 3.04915 27.5933 3.04915 27.9699 3.0926L38.9131 3.23021C38.7345 2.39855 38.2792 1.65205 37.6214 1.1127C36.9637 0.573353 36.1424 0.273045 35.2919 0.260858L4.0196 0.000134406C3.49637 -0.00431613 2.97809 0.101807 2.49872 0.311554C2.83911 2.89706 4.2079 10.5522 8.88644 17.3817Z" fill="#5D50B6"/>
<path d="M29.2156 31.41C27.132 31.8633 25.0102 32.1179 22.8786 32.1705C14.2312 32.0618 8.64018 26.9343 8.72708 19.5543C8.73948 18.8277 8.79267 18.1023 8.88642 17.3817C4.20788 10.5522 2.83908 2.89703 2.4987 0.311523C2.4987 0.311523 -2.1726 29.766 21.2708 38.8913L34.9732 39C35.9689 39.0057 36.9261 38.6163 37.6349 37.917C38.3437 37.2177 38.7461 36.2658 38.7537 35.2702L38.8044 28.6434C36.8532 28.9466 34.8835 29.1159 32.9092 29.1504C31.902 30.2202 30.6266 31.0004 29.2156 31.41Z" fill="#010205"/>
<path opacity="0.15" d="M37.5008 0.999512C37.8341 1.59436 38.0063 2.26588 38.0005 2.94769L37.805 28.542L37.7543 35.4367C37.7471 36.1859 37.5249 36.9173 37.1141 37.5438C36.7032 38.1704 36.121 38.6657 35.4368 38.971C36.3467 38.8651 37.1866 38.4306 37.7987 37.7491C38.4108 37.0677 38.753 36.1861 38.761 35.2701L38.8117 28.6434L39 4.01956C39.0025 3.43419 38.8683 2.85633 38.608 2.33201C38.3478 1.80769 37.9686 1.3514 37.5008 0.999512Z" fill="#FCFCFC"/>
<path style="mix-blend-mode:overlay" opacity="0.62" d="M19.9165 38.8768H21.2491C-2.17258 29.7587 2.47699 0.304199 2.47699 0.304199C2.03765 0.500306 1.63952 0.778013 1.30373 1.12258C0.840223 5.06964 -1.23108 30.4177 19.9165 38.8768Z" fill="url(#paint0_linear_26_290)"/>
<defs>
<linearGradient id="paint0_linear_26_290" x1="3.49543" y1="21.9024" x2="15.6359" y2="18.5516" gradientUnits="userSpaceOnUse">
<stop stop-color="#FFC200"/>
</linearGradient>
</defs>
</svg>
