<svg width="50" height="32" viewBox="0 0 50 32" fill="none" xmlns="http://www.w3.org/2000/svg">
<path d="M6.57 31.68C6.36 31.35 5.88 31.14 5.13 31.05C4.41 30.96 3.525 30.945 2.475 31.005C2.055 31.065 1.65 31.035 1.26 30.915C0.87 30.825 0.555 30.66 0.315 30.42C0.105 30.21 0.0300004 29.985 0.0900003 29.745C0.12 29.385 0.42 29.1 0.99 28.89C1.59 28.68 2.535 28.56 3.825 28.53L6.21 28.485L6.66 27.585C6.78 27.255 6.93 26.79 7.11 26.19C7.29 25.59 7.485 24.945 7.695 24.255C7.815 23.835 7.995 23.265 8.235 22.545C8.475 21.825 8.73 21.06 9 20.25C9.27 19.44 9.51 18.72 9.72 18.09C9.93 17.43 10.065 16.965 10.125 16.695C10.245 16.425 10.41 15.975 10.62 15.345C10.83 14.685 11.025 14.025 11.205 13.365C11.415 12.675 11.55 12.18 11.61 11.88C12.39 9.51 12.9 7.83 13.14 6.84C13.38 5.82 13.44 5.295 13.32 5.265C13.2 5.265 12.9 5.28 12.42 5.31C11.97 5.34 11.46 5.385 10.89 5.445C10.35 5.475 9.855 5.52 9.405 5.58C8.985 5.64 8.73 5.7 8.64 5.76C8.49 5.97 8.235 6.015 7.875 5.895C7.515 5.775 7.29 5.565 7.2 5.265C7.17 4.995 7.155 4.785 7.155 4.635C7.185 4.485 7.275 4.365 7.425 4.275C7.635 4.095 8.04 3.9 8.64 3.69C9.24 3.45 9.915 3.24 10.665 3.06C11.445 2.88 12.18 2.745 12.87 2.655C13.38 2.595 13.89 2.49 14.4 2.34C14.91 2.16 15.315 1.95 15.615 1.71C15.885 1.62 16.14 1.545 16.38 1.485C16.65 1.425 16.92 1.41 17.19 1.44C17.43 1.59 17.835 1.665 18.405 1.665C19.005 1.665 19.635 1.65 20.295 1.62C21.975 1.47 23.1 1.425 23.67 1.485C24.27 1.545 24.675 1.785 24.885 2.205C25.035 2.775 25.065 3.225 24.975 3.555C24.885 3.855 24.585 3.99 24.075 3.96C23.805 4.02 23.31 4.08 22.59 4.14C21.9 4.17 21.165 4.2 20.385 4.23C18.255 4.41 17.115 4.62 16.965 4.86C16.845 4.98 16.74 5.1 16.65 5.22C16.59 5.34 16.5 5.475 16.38 5.625C16.41 5.745 16.335 6.135 16.155 6.795C16.005 7.425 15.81 8.07 15.57 8.73C15.45 9.12 15.27 9.675 15.03 10.395C14.79 11.115 14.535 11.865 14.265 12.645C14.025 13.395 13.8 14.085 13.59 14.715C13.38 15.315 13.23 15.72 13.14 15.93C13.02 16.2 12.915 16.5 12.825 16.83C12.765 17.13 12.72 17.355 12.69 17.505C12.27 18.975 11.895 20.22 11.565 21.24C11.265 22.26 10.98 23.16 10.71 23.94C10.47 24.69 10.245 25.425 10.035 26.145C9.825 26.835 9.6 27.6 9.36 28.44C9.36 28.44 9.585 28.425 10.035 28.395C10.515 28.335 11.145 28.275 11.925 28.215C13.335 28.065 14.34 27.975 14.94 27.945C15.57 27.915 15.99 27.96 16.2 28.08C16.41 28.17 16.56 28.35 16.65 28.62C17.25 29.43 17.325 29.985 16.875 30.285C16.425 30.585 15.36 30.72 13.68 30.69C12.12 30.75 10.92 30.795 10.08 30.825C9.27 30.885 8.7 30.96 8.37 31.05C8.07 31.14 7.89 31.29 7.83 31.5C7.83 31.74 7.71 31.86 7.47 31.86C7.23 31.86 6.93 31.8 6.57 31.68ZM25.6226 10.26C25.3226 10.29 25.1276 10.29 25.0376 10.26C24.9476 10.23 24.7976 10.125 24.5876 9.945C24.5576 9.735 24.5876 9.54 24.6776 9.36C24.7676 9.18 24.8876 8.985 25.0376 8.775C25.3976 8.175 25.8026 7.47 26.2526 6.66C26.7326 5.82 27.0476 5.175 27.1976 4.725C27.1976 4.605 27.2126 4.5 27.2426 4.41C26.7326 4.5 26.2076 4.32 25.6676 3.87C25.0976 3.33 24.9026 2.79 25.0826 2.25C25.2926 1.68 25.7876 1.125 26.5676 0.585002C27.1076 0.255003 27.4976 0.0750028 27.7376 0.0450014C28.0076 0.0150018 28.4126 0.120002 28.9526 0.360003C29.4626 0.660002 29.8076 1.005 29.9876 1.395C30.1976 1.755 30.2276 2.13 30.0776 2.52C29.9876 3.21 29.8226 3.855 29.5826 4.455C29.3726 5.055 29.1776 5.64 28.9976 6.21C28.8176 6.87 28.5176 7.485 28.0976 8.055C27.6776 8.625 27.2126 9.21 26.7026 9.81C26.7326 9.93 26.6426 10.005 26.4326 10.035C26.2226 10.065 25.9526 10.14 25.6226 10.26ZM46.016 28.395C45.866 28.335 45.641 28.185 45.341 27.945C45.041 27.705 44.786 27.3 44.576 26.73C44.366 26.13 44.261 25.305 44.261 24.255C44.291 23.355 44.306 22.65 44.306 22.14C44.336 21.63 44.231 21.375 43.991 21.375C43.751 21.375 43.286 21.615 42.596 22.095C41.936 22.545 41.171 23.16 40.301 23.94C39.431 24.72 38.546 25.59 37.646 26.55C37.346 26.88 37.046 27.195 36.746 27.495C36.476 27.765 36.206 27.945 35.936 28.035C35.666 28.095 35.351 27.99 34.991 27.72L34.496 27.315C34.346 27.165 34.256 27.015 34.226 26.865C34.196 26.685 34.211 26.49 34.271 26.28L35.306 23.31C35.786 22.23 36.116 21.45 36.296 20.97C36.476 20.46 36.566 20.145 36.566 20.025C36.566 19.875 36.521 19.815 36.431 19.845C36.191 19.875 35.831 20.025 35.351 20.295C34.871 20.535 34.556 20.775 34.406 21.015C34.286 21.015 34.106 21.15 33.866 21.42C33.626 21.69 33.326 21.945 32.966 22.185C32.756 22.545 32.336 23.01 31.706 23.58C31.106 24.15 30.506 24.735 29.906 25.335C29.516 25.665 29.126 26.07 28.736 26.55C28.376 27.03 28.061 27.45 27.791 27.81C27.551 28.17 27.386 28.35 27.296 28.35C26.906 28.35 26.546 28.245 26.216 28.035C25.916 27.825 25.691 27.48 25.541 27C25.301 26.49 25.301 25.785 25.541 24.885C25.781 23.955 26.051 22.755 26.351 21.285C26.471 20.835 26.546 20.505 26.576 20.295C26.606 20.085 26.651 19.875 26.711 19.665C26.801 19.425 26.936 19.065 27.116 18.585C27.326 18.105 27.641 17.385 28.061 16.425C28.271 15.855 28.391 15.435 28.421 15.165C28.481 14.865 28.511 14.655 28.511 14.535C28.511 14.235 28.586 13.98 28.736 13.77C28.916 13.56 29.126 13.41 29.366 13.32C29.606 13.23 29.831 13.215 30.041 13.275C30.371 13.335 30.656 13.5 30.896 13.77C31.166 14.04 31.316 14.415 31.346 14.895C31.376 15.255 31.346 15.585 31.256 15.885C31.166 16.155 31.076 16.41 30.986 16.65L30.491 17.865C30.341 18.195 30.146 18.675 29.906 19.305C29.666 19.935 29.456 20.52 29.276 21.06C29.096 21.57 29.006 21.87 29.006 21.96C29.036 22.05 29.141 22.035 29.321 21.915C29.501 21.765 29.726 21.57 29.996 21.33C30.296 21.06 30.596 20.805 30.896 20.565C31.526 19.965 32.231 19.395 33.011 18.855C33.821 18.285 34.586 17.805 35.306 17.415C36.026 17.025 36.581 16.77 36.971 16.65C37.481 16.65 37.826 16.74 38.006 16.92C38.216 17.1 38.561 17.43 39.041 17.91C39.251 18.12 39.371 18.39 39.401 18.72C39.431 19.05 39.416 19.365 39.356 19.665C39.326 19.785 39.236 20.085 39.086 20.565C38.936 21.015 38.786 21.45 38.636 21.87C38.516 22.29 38.456 22.5 38.456 22.5C38.456 22.5 38.621 22.35 38.951 22.05C39.311 21.75 39.701 21.435 40.121 21.105C40.541 20.745 40.856 20.475 41.066 20.295C42.236 19.395 43.256 18.825 44.126 18.585C44.996 18.345 45.701 18.66 46.241 19.53C46.601 19.86 46.781 20.22 46.781 20.61C46.811 21 46.826 21.675 46.826 22.635C46.856 23.025 46.886 23.49 46.916 24.03C46.946 24.57 46.976 25.065 47.006 25.515C47.066 25.935 47.126 26.19 47.186 26.28C47.276 26.4 47.441 26.505 47.681 26.595C47.951 26.655 48.296 26.715 48.716 26.775C49.166 26.835 49.436 27.03 49.526 27.36C49.616 27.69 49.421 28.005 48.941 28.305C48.491 28.575 47.996 28.695 47.456 28.665C46.916 28.635 46.436 28.545 46.016 28.395Z" fill="#5D4FB6"/>
</svg>
