<svg width="194" height="39" viewBox="0 0 194 39" fill="none" xmlns="http://www.w3.org/2000/svg">
<path d="M58.398 26.18C57.486 26.18 56.634 26.018 55.842 25.694C55.05 25.358 54.354 24.896 53.754 24.308C53.154 23.72 52.686 23.036 52.35 22.256C52.026 21.464 51.864 20.612 51.864 19.7C51.864 18.8 52.026 17.96 52.35 17.18C52.686 16.4 53.148 15.722 53.736 15.146C54.336 14.558 55.032 14.102 55.824 13.778C56.616 13.454 57.468 13.292 58.38 13.292C59.016 13.292 59.634 13.382 60.234 13.562C60.846 13.742 61.398 13.994 61.89 14.318C62.382 14.642 62.784 15.014 63.096 15.434L61.836 16.748C61.476 16.4 61.104 16.112 60.72 15.884C60.348 15.656 59.964 15.482 59.568 15.362C59.172 15.242 58.776 15.182 58.38 15.182C57.732 15.182 57.132 15.296 56.58 15.524C56.04 15.752 55.56 16.07 55.14 16.478C54.732 16.886 54.414 17.366 54.186 17.918C53.958 18.458 53.844 19.052 53.844 19.7C53.844 20.324 53.964 20.918 54.204 21.482C54.444 22.034 54.774 22.52 55.194 22.94C55.626 23.36 56.118 23.69 56.67 23.93C57.234 24.17 57.828 24.29 58.452 24.29C58.92 24.29 59.364 24.224 59.784 24.092C60.204 23.948 60.576 23.75 60.9 23.498C61.224 23.246 61.476 22.958 61.656 22.634C61.836 22.298 61.926 21.944 61.926 21.572V21.212L62.196 21.464H58.344V19.538H63.924C63.948 19.67 63.966 19.802 63.978 19.934C63.99 20.054 63.996 20.174 63.996 20.294C64.008 20.402 64.014 20.51 64.014 20.618C64.014 21.446 63.87 22.202 63.582 22.886C63.294 23.558 62.892 24.14 62.376 24.632C61.872 25.124 61.278 25.508 60.594 25.784C59.922 26.048 59.19 26.18 58.398 26.18ZM69.7133 26.18C68.9333 26.18 68.2193 25.964 67.5713 25.532C66.9353 25.1 66.4253 24.512 66.0413 23.768C65.6573 23.024 65.4653 22.184 65.4653 21.248C65.4653 20.3 65.6573 19.46 66.0413 18.728C66.4373 17.984 66.9653 17.402 67.6253 16.982C68.2973 16.562 69.0473 16.352 69.8753 16.352C70.3673 16.352 70.8173 16.424 71.2253 16.568C71.6333 16.712 71.9873 16.916 72.2873 17.18C72.5993 17.432 72.8513 17.726 73.0433 18.062C73.2473 18.398 73.3733 18.758 73.4213 19.142L73.0073 18.998V16.55H74.8793V26H73.0073V23.75L73.4393 23.624C73.3673 23.948 73.2173 24.266 72.9893 24.578C72.7733 24.878 72.4913 25.148 72.1433 25.388C71.8073 25.628 71.4293 25.82 71.0093 25.964C70.6013 26.108 70.1693 26.18 69.7133 26.18ZM70.1993 24.47C70.7633 24.47 71.2613 24.332 71.6933 24.056C72.1253 23.78 72.4613 23.402 72.7013 22.922C72.9533 22.43 73.0793 21.872 73.0793 21.248C73.0793 20.636 72.9533 20.09 72.7013 19.61C72.4613 19.13 72.1253 18.752 71.6933 18.476C71.2613 18.2 70.7633 18.062 70.1993 18.062C69.6473 18.062 69.1553 18.2 68.7233 18.476C68.3033 18.752 67.9673 19.13 67.7153 19.61C67.4753 20.09 67.3553 20.636 67.3553 21.248C67.3553 21.872 67.4753 22.43 67.7153 22.922C67.9673 23.402 68.3033 23.78 68.7233 24.056C69.1553 24.332 69.6473 24.47 70.1993 24.47ZM82.4359 26.18C82.0279 26.18 81.6199 26.114 81.2119 25.982C80.8159 25.85 80.4499 25.676 80.1139 25.46C79.7899 25.232 79.5139 24.986 79.2859 24.722C79.0699 24.446 78.9259 24.17 78.8539 23.894L79.3219 23.642V25.946H77.4679V12.68H79.3219V18.71L79.0339 18.548C79.0939 18.272 79.2259 18.008 79.4299 17.756C79.6339 17.492 79.8919 17.258 80.2039 17.054C80.5279 16.838 80.8759 16.67 81.2479 16.55C81.6199 16.418 81.9979 16.352 82.3819 16.352C83.2339 16.352 83.9899 16.562 84.6499 16.982C85.3099 17.402 85.8319 17.984 86.2159 18.728C86.5999 19.46 86.7919 20.3 86.7919 21.248C86.7919 22.196 86.5999 23.042 86.2159 23.786C85.8439 24.53 85.3279 25.118 84.6679 25.55C84.0079 25.97 83.2639 26.18 82.4359 26.18ZM82.1299 24.488C82.6819 24.488 83.1739 24.35 83.6059 24.074C84.0379 23.786 84.3799 23.402 84.6319 22.922C84.8839 22.43 85.0099 21.872 85.0099 21.248C85.0099 20.636 84.8839 20.09 84.6319 19.61C84.3919 19.118 84.0559 18.734 83.6239 18.458C83.1919 18.182 82.6939 18.044 82.1299 18.044C81.5659 18.044 81.0679 18.182 80.6359 18.458C80.2039 18.734 79.8619 19.118 79.6099 19.61C79.3579 20.09 79.2319 20.636 79.2319 21.248C79.2319 21.872 79.3579 22.43 79.6099 22.922C79.8619 23.402 80.2039 23.786 80.6359 24.074C81.0679 24.35 81.5659 24.488 82.1299 24.488ZM88.8058 26V16.55H90.6778V19.52L90.4978 18.8C90.6298 18.344 90.8518 17.93 91.1638 17.558C91.4878 17.186 91.8538 16.892 92.2618 16.676C92.6818 16.46 93.1138 16.352 93.5578 16.352C93.7618 16.352 93.9538 16.37 94.1338 16.406C94.3258 16.442 94.4758 16.484 94.5838 16.532L94.0978 18.548C93.9538 18.488 93.7918 18.44 93.6118 18.404C93.4438 18.356 93.2758 18.332 93.1078 18.332C92.7838 18.332 92.4718 18.398 92.1718 18.53C91.8838 18.65 91.6258 18.824 91.3978 19.052C91.1818 19.268 91.0078 19.526 90.8758 19.826C90.7438 20.114 90.6778 20.432 90.6778 20.78V26H88.8058ZM96.3715 26V16.55H98.2255V26H96.3715ZM97.2715 14.462C96.8755 14.462 96.5695 14.36 96.3535 14.156C96.1375 13.952 96.0295 13.664 96.0295 13.292C96.0295 12.944 96.1375 12.662 96.3535 12.446C96.5815 12.23 96.8875 12.122 97.2715 12.122C97.6675 12.122 97.9735 12.224 98.1895 12.428C98.4055 12.632 98.5135 12.92 98.5135 13.292C98.5135 13.64 98.3995 13.922 98.1715 14.138C97.9555 14.354 97.6555 14.462 97.2715 14.462ZM105.485 26.18C104.513 26.18 103.649 25.976 102.893 25.568C102.149 25.148 101.561 24.578 101.129 23.858C100.709 23.138 100.499 22.31 100.499 21.374C100.499 20.63 100.619 19.952 100.859 19.34C101.099 18.728 101.429 18.2 101.849 17.756C102.281 17.3 102.791 16.952 103.379 16.712C103.979 16.46 104.627 16.334 105.323 16.334C105.935 16.334 106.505 16.454 107.033 16.694C107.561 16.922 108.017 17.24 108.401 17.648C108.797 18.056 109.097 18.542 109.301 19.106C109.517 19.658 109.619 20.264 109.607 20.924L109.589 21.716H101.867L101.453 20.24H107.987L107.717 20.546V20.114C107.681 19.718 107.549 19.364 107.321 19.052C107.093 18.74 106.805 18.494 106.457 18.314C106.109 18.134 105.731 18.044 105.323 18.044C104.675 18.044 104.129 18.17 103.685 18.422C103.241 18.662 102.905 19.022 102.677 19.502C102.449 19.97 102.335 20.552 102.335 21.248C102.335 21.908 102.473 22.484 102.749 22.976C103.025 23.456 103.415 23.828 103.919 24.092C104.423 24.356 105.005 24.488 105.665 24.488C106.133 24.488 106.565 24.41 106.961 24.254C107.369 24.098 107.807 23.816 108.275 23.408L109.211 24.722C108.923 25.01 108.569 25.262 108.149 25.478C107.741 25.694 107.303 25.868 106.835 26C106.379 26.12 105.929 26.18 105.485 26.18ZM111.658 26V12.68H113.512V26H111.658ZM119.6 26.18C118.82 26.18 118.106 25.964 117.458 25.532C116.822 25.1 116.312 24.512 115.928 23.768C115.544 23.024 115.352 22.184 115.352 21.248C115.352 20.3 115.544 19.46 115.928 18.728C116.324 17.984 116.852 17.402 117.512 16.982C118.184 16.562 118.934 16.352 119.762 16.352C120.254 16.352 120.704 16.424 121.112 16.568C121.52 16.712 121.874 16.916 122.174 17.18C122.486 17.432 122.738 17.726 122.93 18.062C123.134 18.398 123.26 18.758 123.308 19.142L122.894 18.998V16.55H124.766V26H122.894V23.75L123.326 23.624C123.254 23.948 123.104 24.266 122.876 24.578C122.66 24.878 122.378 25.148 122.03 25.388C121.694 25.628 121.316 25.82 120.896 25.964C120.488 26.108 120.056 26.18 119.6 26.18ZM120.086 24.47C120.65 24.47 121.148 24.332 121.58 24.056C122.012 23.78 122.348 23.402 122.588 22.922C122.84 22.43 122.966 21.872 122.966 21.248C122.966 20.636 122.84 20.09 122.588 19.61C122.348 19.13 122.012 18.752 121.58 18.476C121.148 18.2 120.65 18.062 120.086 18.062C119.534 18.062 119.042 18.2 118.61 18.476C118.19 18.752 117.854 19.13 117.602 19.61C117.362 20.09 117.242 20.636 117.242 21.248C117.242 21.872 117.362 22.43 117.602 22.922C117.854 23.402 118.19 23.78 118.61 24.056C119.042 24.332 119.534 24.47 120.086 24.47ZM131.554 26L136.432 13.4H138.412L143.254 26H141.184L138.304 18.404C138.268 18.32 138.196 18.116 138.088 17.792C137.992 17.468 137.878 17.108 137.746 16.712C137.614 16.316 137.494 15.956 137.386 15.632C137.278 15.296 137.206 15.08 137.17 14.984L137.584 14.966C137.512 15.17 137.422 15.428 137.314 15.74C137.218 16.052 137.11 16.382 136.99 16.73C136.882 17.078 136.774 17.408 136.666 17.72C136.558 18.02 136.468 18.272 136.396 18.476L133.534 26H131.554ZM133.714 22.868L134.434 20.996H140.158L140.986 22.868H133.714ZM149.057 30.14C148.385 30.14 147.713 30.032 147.041 29.816C146.381 29.612 145.847 29.342 145.439 29.006L146.123 27.566C146.363 27.746 146.645 27.902 146.969 28.034C147.293 28.178 147.635 28.286 147.995 28.358C148.355 28.442 148.709 28.484 149.057 28.484C149.717 28.484 150.269 28.376 150.713 28.16C151.157 27.944 151.493 27.626 151.721 27.206C151.949 26.786 152.063 26.264 152.063 25.64V23.822L152.261 23.948C152.201 24.32 152.003 24.68 151.667 25.028C151.343 25.364 150.935 25.64 150.443 25.856C149.951 26.072 149.447 26.18 148.931 26.18C148.031 26.18 147.227 25.97 146.519 25.55C145.823 25.118 145.271 24.536 144.863 23.804C144.455 23.06 144.251 22.214 144.251 21.266C144.251 20.318 144.449 19.478 144.845 18.746C145.253 18.002 145.805 17.42 146.501 17C147.209 16.568 148.001 16.352 148.877 16.352C149.237 16.352 149.585 16.4 149.921 16.496C150.257 16.58 150.569 16.706 150.857 16.874C151.145 17.03 151.403 17.204 151.631 17.396C151.859 17.588 152.045 17.792 152.189 18.008C152.333 18.224 152.423 18.428 152.459 18.62L152.063 18.764V16.55H153.917V25.424C153.917 26.18 153.803 26.846 153.575 27.422C153.359 28.01 153.041 28.502 152.621 28.898C152.201 29.306 151.691 29.612 151.091 29.816C150.491 30.032 149.813 30.14 149.057 30.14ZM149.129 24.47C149.717 24.47 150.239 24.332 150.695 24.056C151.151 23.78 151.505 23.402 151.757 22.922C152.009 22.442 152.135 21.89 152.135 21.266C152.135 20.642 152.003 20.09 151.739 19.61C151.487 19.118 151.133 18.734 150.677 18.458C150.233 18.182 149.717 18.044 149.129 18.044C148.553 18.044 148.037 18.188 147.581 18.476C147.137 18.752 146.783 19.136 146.519 19.628C146.267 20.108 146.141 20.654 146.141 21.266C146.141 21.878 146.267 22.43 146.519 22.922C146.783 23.402 147.137 23.78 147.581 24.056C148.037 24.332 148.553 24.47 149.129 24.47ZM159.688 26.18C159.016 26.18 158.428 26.024 157.924 25.712C157.432 25.4 157.048 24.962 156.772 24.398C156.508 23.834 156.376 23.162 156.376 22.382V16.55H158.23V21.878C158.23 22.43 158.314 22.91 158.482 23.318C158.662 23.714 158.914 24.02 159.238 24.236C159.574 24.452 159.976 24.56 160.444 24.56C160.792 24.56 161.11 24.506 161.398 24.398C161.686 24.278 161.932 24.116 162.136 23.912C162.352 23.708 162.52 23.462 162.64 23.174C162.76 22.886 162.82 22.574 162.82 22.238V16.55H164.674V26H162.82V24.02L163.144 23.804C163 24.248 162.754 24.65 162.406 25.01C162.07 25.37 161.668 25.658 161.2 25.874C160.732 26.078 160.228 26.18 159.688 26.18ZM167.581 26V16.55H169.435V26H167.581ZM168.481 14.462C168.085 14.462 167.779 14.36 167.563 14.156C167.347 13.952 167.239 13.664 167.239 13.292C167.239 12.944 167.347 12.662 167.563 12.446C167.791 12.23 168.097 12.122 168.481 12.122C168.877 12.122 169.183 12.224 169.399 12.428C169.615 12.632 169.723 12.92 169.723 13.292C169.723 13.64 169.609 13.922 169.381 14.138C169.165 14.354 168.865 14.462 168.481 14.462ZM172.32 26V12.68H174.174V26H172.32ZM180.262 26.18C179.482 26.18 178.768 25.964 178.12 25.532C177.484 25.1 176.974 24.512 176.59 23.768C176.206 23.024 176.014 22.184 176.014 21.248C176.014 20.3 176.206 19.46 176.59 18.728C176.986 17.984 177.514 17.402 178.174 16.982C178.846 16.562 179.596 16.352 180.424 16.352C180.916 16.352 181.366 16.424 181.774 16.568C182.182 16.712 182.536 16.916 182.836 17.18C183.148 17.432 183.4 17.726 183.592 18.062C183.796 18.398 183.922 18.758 183.97 19.142L183.556 18.998V16.55H185.428V26H183.556V23.75L183.988 23.624C183.916 23.948 183.766 24.266 183.538 24.578C183.322 24.878 183.04 25.148 182.692 25.388C182.356 25.628 181.978 25.82 181.558 25.964C181.15 26.108 180.718 26.18 180.262 26.18ZM180.748 24.47C181.312 24.47 181.81 24.332 182.242 24.056C182.674 23.78 183.01 23.402 183.25 22.922C183.502 22.43 183.628 21.872 183.628 21.248C183.628 20.636 183.502 20.09 183.25 19.61C183.01 19.13 182.674 18.752 182.242 18.476C181.81 18.2 181.312 18.062 180.748 18.062C180.196 18.062 179.704 18.2 179.272 18.476C178.852 18.752 178.516 19.13 178.264 19.61C178.024 20.09 177.904 20.636 177.904 21.248C177.904 21.872 178.024 22.43 178.264 22.922C178.516 23.402 178.852 23.78 179.272 24.056C179.704 24.332 180.196 24.47 180.748 24.47ZM188.017 26V16.55H189.889V19.52L189.709 18.8C189.841 18.344 190.063 17.93 190.375 17.558C190.699 17.186 191.065 16.892 191.473 16.676C191.893 16.46 192.325 16.352 192.769 16.352C192.973 16.352 193.165 16.37 193.345 16.406C193.537 16.442 193.687 16.484 193.795 16.532L193.309 18.548C193.165 18.488 193.003 18.44 192.823 18.404C192.655 18.356 192.487 18.332 192.319 18.332C191.995 18.332 191.683 18.398 191.383 18.53C191.095 18.65 190.837 18.824 190.609 19.052C190.393 19.268 190.219 19.526 190.087 19.826C189.955 20.114 189.889 20.432 189.889 20.78V26H188.017Z" fill="white"/>
<path d="M2.49871 0.311523C1.83284 0.601097 1.26509 1.07734 0.864093 1.68269C0.463099 2.28803 0.246025 2.99657 0.239109 3.72265L0.00011272 34.9732C-0.0037063 35.4659 0.0895524 35.9545 0.274564 36.4111C0.459575 36.8677 0.732716 37.2834 1.07839 37.6345C1.42406 37.9855 1.8355 38.2651 2.28921 38.4571C2.74291 38.6491 3.23 38.7499 3.72266 38.7537L21.2708 38.8913C-2.17258 29.766 2.49871 0.311523 2.49871 0.311523Z" fill="#010205"/>
<path d="M33.0613 10.8201C29.1939 11.1098 30.3816 10.6753 26.5432 10.7404C24.5515 10.7404 22.4875 11.1677 20.9521 12.5221C20.0711 13.3592 19.3755 14.3719 18.9102 15.4946C18.4449 16.6173 18.2202 17.8252 18.2507 19.0401C18.1768 20.3143 18.5814 21.5702 19.3852 22.5616C20.189 23.553 21.3342 24.2084 22.5961 24.3994C23.1563 24.4982 23.7225 24.5587 24.2908 24.5805C25.0483 24.5846 25.7838 24.3264 26.3726 23.8499C26.9613 23.3733 27.3671 22.7077 27.5209 21.966L28.6072 16.8964C29.5983 16.908 30.5745 17.1394 31.4654 17.5739C32.3563 18.0084 33.1396 18.6352 33.759 19.409C34.3783 20.1829 34.8182 21.0845 35.047 22.0489C35.2758 23.0133 35.2877 24.0165 35.0819 24.9861C35.0785 25.0004 35.0785 25.0152 35.0819 25.0295C34.7553 26.5722 34.0025 27.9924 32.9092 29.1287C34.8835 29.0942 36.8532 28.9248 38.8044 28.6217L38.9637 7.99561C38.3309 8.9371 37.4446 9.6803 36.4072 10.1393C35.3343 10.5396 34.2053 10.7693 33.0613 10.8201Z" fill="#5D50B6"/>
<path d="M8.88644 17.3817C9.06084 15.9996 9.40629 14.6446 9.91485 13.3477C10.009 13.1232 10.0959 12.8987 10.1973 12.6814L10.2408 12.5945C10.3325 12.3772 10.4339 12.1672 10.5449 11.9644C13.3694 6.38061 19.2936 2.955 26.8691 3.04915C27.2457 3.04915 27.5933 3.04915 27.9699 3.0926L38.9131 3.23021C38.7345 2.39855 38.2792 1.65205 37.6214 1.1127C36.9637 0.573353 36.1424 0.273045 35.2919 0.260858L4.0196 0.000134406C3.49637 -0.00431613 2.97809 0.101807 2.49872 0.311554C2.83911 2.89706 4.2079 10.5522 8.88644 17.3817Z" fill="#5D50B6"/>
<path d="M29.2156 31.41C27.132 31.8633 25.0102 32.1179 22.8786 32.1705C14.2312 32.0618 8.64018 26.9343 8.72708 19.5543C8.73948 18.8277 8.79267 18.1023 8.88642 17.3817C4.20788 10.5522 2.83908 2.89703 2.4987 0.311523C2.4987 0.311523 -2.1726 29.766 21.2708 38.8913L34.9732 39C35.9689 39.0057 36.9261 38.6163 37.6349 37.917C38.3437 37.2177 38.7461 36.2658 38.7537 35.2702L38.8044 28.6434C36.8532 28.9466 34.8835 29.1159 32.9092 29.1504C31.902 30.2202 30.6266 31.0004 29.2156 31.41Z" fill="#010205"/>
<path opacity="0.15" d="M37.5008 0.999512C37.8341 1.59436 38.0063 2.26588 38.0005 2.94769L37.805 28.542L37.7543 35.4367C37.7471 36.1859 37.5249 36.9173 37.1141 37.5438C36.7032 38.1704 36.121 38.6657 35.4368 38.971C36.3467 38.8651 37.1866 38.4306 37.7987 37.7491C38.4108 37.0677 38.753 36.1861 38.761 35.2701L38.8117 28.6434L39 4.01956C39.0025 3.43419 38.8683 2.85633 38.608 2.33201C38.3478 1.80769 37.9686 1.3514 37.5008 0.999512Z" fill="#FCFCFC"/>
<path style="mix-blend-mode:overlay" opacity="0.62" d="M19.9165 38.8768H21.2491C-2.17258 29.7587 2.47699 0.304199 2.47699 0.304199C2.03765 0.500306 1.63952 0.778013 1.30373 1.12258C0.840223 5.06964 -1.23108 30.4177 19.9165 38.8768Z" fill="url(#paint0_linear_29_4)"/>
<defs>
<linearGradient id="paint0_linear_29_4" x1="3.49543" y1="21.9024" x2="15.6359" y2="18.5516" gradientUnits="userSpaceOnUse">
<stop stop-color="#FFC200"/>
</linearGradient>
</defs>
</svg>
