<svg width="51" height="41" viewBox="0 0 51 41" fill="none" xmlns="http://www.w3.org/2000/svg">
<path d="M16.7686 37.3315C16.7686 38.7123 15.6493 39.8315 14.2686 39.8315H3C1.61929 39.8315 0.5 38.7123 0.5 37.3315V28.2241C0.5 24.9682 1.09494 21.5922 2.27637 18.0991L2.27734 18.0962C3.49294 14.5712 5.13768 11.248 7.21094 8.12744V8.12549C9.00928 5.43329 10.9941 3.09608 13.165 1.1167C13.9983 0.357247 15.2275 0.308685 16.1426 0.918457L22.1689 4.93408C23.3093 5.69398 23.6137 7.21644 22.9189 8.37354C21.3002 11.0688 19.9085 13.8621 18.7471 16.7544L18.748 16.7554C17.3961 20.1733 16.7337 23.9565 16.7686 28.1108V37.3315ZM43.6484 37.3315C43.6484 38.7123 42.5291 39.8315 41.1484 39.8315H29.8799C28.4992 39.8315 27.3799 38.7123 27.3799 37.3315V28.2241C27.3799 24.9682 27.9739 21.5922 29.1553 18.0991L29.1562 18.0962C30.3718 14.5712 32.0166 11.248 34.0898 8.12744L34.0908 8.12549C35.8891 5.43338 37.8731 3.09603 40.0439 1.1167C40.8772 0.356982 42.1073 0.308611 43.0225 0.918457L49.0488 4.93408C50.1892 5.69395 50.4935 7.21646 49.7988 8.37354C48.1801 11.0687 46.7884 13.8622 45.627 16.7544L45.6279 16.7554C44.276 20.1734 43.6136 23.9565 43.6484 28.1108V37.3315Z" fill="url(#paint0_linear_29_3)" stroke="#5D4FB6"/>
<defs>
<linearGradient id="paint0_linear_29_3" x1="25.7059" y1="0.508301" x2="25.7059" y2="39.3318" gradientUnits="userSpaceOnUse">
<stop stop-color="#471EFF"/>
<stop offset="1" stop-color="#191919"/>
</linearGradient>
</defs>
</svg>
