<svg width="404" height="60" viewBox="0 0 404 60" fill="none" xmlns="http://www.w3.org/2000/svg">
<line y1="29.5" x2="152" y2="29.5" stroke="#262626"/>
<path d="M193.269 47.8235C193.269 49.2042 192.15 50.3235 190.769 50.3235H179.5C178.12 50.3235 177 49.2042 177 47.8235V38.7161C177 35.4601 177.595 32.0841 178.777 28.5911L178.778 28.5881C179.993 25.0631 181.638 21.74 183.711 18.6194V18.6174C185.51 15.9252 187.494 13.588 189.665 11.6086C190.499 10.8492 191.728 10.8006 192.643 11.4104L198.669 15.426C199.81 16.1859 200.114 17.7084 199.419 18.8655C197.801 21.5607 196.409 24.3541 195.247 27.2463L195.248 27.2473C193.896 30.6653 193.234 34.4484 193.269 38.6028V47.8235ZM220.149 47.8235C220.149 49.2042 219.03 50.3235 217.649 50.3235H206.38C205 50.3235 203.88 49.2042 203.88 47.8235V38.7161C203.88 35.4601 204.474 32.0841 205.656 28.5911L205.657 28.5881C206.872 25.0631 208.517 21.74 210.59 18.6194L210.591 18.6174C212.389 15.9253 214.373 13.588 216.544 11.6086C217.378 10.8489 218.608 10.8006 219.523 11.4104L225.549 15.426C226.69 16.1859 226.994 17.7084 226.299 18.8655C224.68 21.5607 223.289 24.3541 222.127 27.2463L222.128 27.2473C220.776 30.6653 220.114 34.4484 220.149 38.6028V47.8235Z" fill="url(#paint0_linear_81_2)" stroke="#5D4FB6"/>
<line x1="252" y1="29.5" x2="404" y2="29.5" stroke="#262626"/>
<defs>
<linearGradient id="paint0_linear_81_2" x1="202.206" y1="11.0002" x2="202.206" y2="49.8238" gradientUnits="userSpaceOnUse">
<stop stop-color="#471EFF"/>
<stop offset="1" stop-color="#191919"/>
</linearGradient>
</defs>
</svg>
