<svg width="102" height="45" viewBox="0 0 102 45" fill="none" xmlns="http://www.w3.org/2000/svg">
<g clip-path="url(#clip0_14_286)">
<g clip-path="url(#clip1_14_286)">
<g clip-path="url(#clip2_14_286)">
<path d="M21.5008 26.0326C23.4716 26.0326 25.0692 24.4349 25.0692 22.4642C25.0692 20.4934 23.4716 18.8958 21.5008 18.8958C19.53 18.8958 17.9324 20.4934 17.9324 22.4642C17.9324 24.4349 19.53 26.0326 21.5008 26.0326Z" fill="#515253"/>
<path fill-rule="evenodd" clip-rule="evenodd" d="M21.763 14.9426C27.8471 14.984 34.4851 15.4279 39.0416 19.4911C39.1755 19.6107 39.3046 19.735 39.4305 19.8633C40.5055 20.959 41.0673 22.728 40.1995 24.1839C38.4192 27.173 34.4381 28.4767 30.5836 29.2791C24.819 30.4792 18.7914 30.4888 13.0292 29.4321C9.71342 28.8233 6.32272 27.7563 3.96636 25.5243C3.04916 24.6557 2.26503 23.513 2.38775 22.2411C2.58697 20.1836 4.56083 18.8632 6.22231 17.9691C10.837 15.486 16.4598 14.9306 21.763 14.9426ZM21.3215 15.8773C15.5649 15.9164 9.33411 16.2837 4.88914 19.9645C4.73375 20.0928 4.58394 20.2274 4.4397 20.3685C4.34647 20.4593 4.25642 20.5542 4.16956 20.6514C3.38942 21.5279 3.12088 22.936 3.85719 23.9887C4.59828 25.0477 5.72347 25.8119 6.88212 26.4351C11.2155 28.7652 16.3362 29.1787 21.3287 29.1963C26.3832 29.2146 31.5956 28.754 36.0605 26.4455C37.8391 25.5251 39.8409 24.1736 39.7699 22.4332C39.7046 20.8363 38.1475 19.8497 36.9817 19.1453C36.6661 18.9548 36.3418 18.7787 36.0127 18.613C31.5805 16.3921 26.3864 15.8661 21.3215 15.8773Z" fill="#515253"/>
<path fill-rule="evenodd" clip-rule="evenodd" d="M29.5604 5.52905C31.7861 5.58562 32.9391 8.26153 33.0913 10.2378C33.1216 10.6306 33.1328 11.0251 33.128 11.4195C33.1232 11.8467 33.1001 12.2738 33.0627 12.6993C32.5933 17.9683 30.1875 22.9862 27.3546 27.62C24.5839 32.1526 21.2052 36.6725 16.6088 38.7731C15.0891 39.4679 13.2818 39.8967 11.9367 39.1213C10.0927 38.0591 9.89113 35.5744 9.92539 33.6898C9.93416 33.2268 9.96444 32.7638 10.0123 32.3024C10.7207 25.4812 14.1783 19.0193 18.5053 13.4524C21.0298 10.2043 24.0333 6.98255 27.7746 5.81592C28.3635 5.63184 28.8313 5.52028 29.5604 5.52905ZM29.4536 6.46298C26.8407 6.50442 24.4947 8.44083 22.4172 10.4529C16.9554 15.7418 12.9304 22.7758 11.3112 30.1525C11.186 30.7238 11.0809 31.2992 11.0036 31.8785C10.9438 32.3272 10.9 32.7782 10.8769 33.2308C10.8585 33.591 10.8522 33.952 10.8633 34.313C10.8713 34.5951 10.8896 34.8772 10.9207 35.1577C10.9438 35.372 10.9749 35.5856 11.0139 35.7975C11.0434 35.9545 11.0777 36.1107 11.1175 36.2661C11.1502 36.392 11.1868 36.5171 11.2283 36.6414C11.5542 37.624 12.3941 38.5627 13.5217 38.5938C16.1522 38.6655 18.6289 36.7474 20.7701 34.6628C24.5289 31.0043 27.3299 26.4072 29.5182 21.5749C31.284 17.6734 32.8993 13.4325 31.9972 9.13809C31.963 8.97553 31.9231 8.81456 31.8777 8.65519C31.8403 8.5253 31.798 8.397 31.7518 8.2703C31.4012 7.31484 30.5764 6.46059 29.4536 6.46298Z" fill="#515253"/>
<path fill-rule="evenodd" clip-rule="evenodd" d="M13.6181 5.56404C16.4582 5.61902 19.009 7.54666 21.2737 9.7054C25.4063 13.6443 28.4543 18.6551 30.7669 23.9288C32.5582 28.0144 34.2062 32.6004 32.7415 36.9115C32.2801 38.2702 31.1127 39.5133 29.5564 39.5452C26.7028 39.6026 24.058 37.5275 21.763 35.2939C16.0055 29.6886 11.7311 22.2888 10.2665 14.4412C10.1613 13.8802 10.0776 13.3144 10.0202 12.7463C9.9732 12.2825 9.94372 11.8163 9.93575 11.3501C9.92937 10.974 9.93734 10.5979 9.96364 10.2234C9.98117 9.97315 10.0067 9.72452 10.0409 9.47669C10.0736 9.244 10.115 9.01211 10.1668 8.78261C10.2011 8.63041 10.2394 8.4798 10.2832 8.32999C10.7127 6.86135 11.8299 5.55288 13.6181 5.56404ZM13.5105 6.49877C11.8475 6.53543 11.0864 8.49654 10.9334 9.87274C10.9024 10.1548 10.8832 10.4393 10.8745 10.7238C10.8633 11.0872 10.8681 11.4513 10.8864 11.8147C11.1478 17.0733 13.4986 22.1574 16.3355 26.8127C19.0066 31.1955 22.2323 35.5608 26.6693 37.8048C27.9507 38.4527 29.5078 38.9619 30.6147 38.3499C32.0028 37.5817 32.1733 35.7513 32.2475 34.387C32.2674 34.0157 32.2698 33.6427 32.2578 33.2706C32.2435 32.8036 32.2068 32.3374 32.1518 31.8737C31.6402 27.5411 29.7214 23.4411 27.5172 19.5667C24.7744 14.7472 21.4139 9.94366 16.6582 7.4343C15.6732 6.91474 14.607 6.49 13.5105 6.49877Z" fill="#515253"/>
</g>
</g>
<path d="M55.255 26V15.5737H61.4175C62.1898 15.5737 62.8602 15.6863 63.4287 15.9116C63.9973 16.1261 64.437 16.464 64.7481 16.9252C65.0592 17.3758 65.2147 17.955 65.2147 18.663C65.2147 19.1349 65.1343 19.5425 64.9734 19.8858C64.8125 20.2183 64.5872 20.4919 64.2976 20.7064C64.008 20.9209 63.6701 21.0872 63.2839 21.2052C62.9085 21.3232 62.5062 21.3983 62.0772 21.4304L61.9163 21.3178C62.6028 21.3285 63.1713 21.3929 63.6218 21.5109C64.0723 21.6182 64.4156 21.8273 64.6516 22.1384C64.8876 22.4387 65.0056 22.8839 65.0056 23.4739V26H63.1874V23.5704C63.1874 23.1628 63.1123 22.8464 62.9621 22.6211C62.8227 22.3851 62.576 22.2242 62.222 22.1384C61.8787 22.0419 61.3853 21.9936 60.7417 21.9936H57.0893V26H55.255ZM57.0893 20.4972H61.4175C62.0611 20.4972 62.5492 20.3363 62.8817 20.0145C63.2142 19.6927 63.3805 19.269 63.3805 18.7434C63.3805 18.2393 63.2142 17.8531 62.8817 17.5849C62.5492 17.306 62.0611 17.1666 61.4175 17.1666H57.0893V20.4972ZM73.0483 23.3612H74.7699C74.6841 23.9083 74.4696 24.3964 74.1263 24.8254C73.7938 25.2438 73.3379 25.5763 72.7587 25.823C72.1794 26.059 71.4876 26.177 70.6831 26.177C69.7713 26.177 68.9561 26.0107 68.2374 25.6782C67.5187 25.3349 66.9556 24.8522 66.5479 24.2301C66.1403 23.608 65.9365 22.8678 65.9365 22.0097C65.9365 21.1623 66.135 20.4221 66.5318 19.7893C66.9287 19.1564 67.4758 18.6683 68.173 18.3251C68.881 17.9818 69.6962 17.8102 70.6187 17.8102C71.5734 17.8102 72.3672 17.9818 73 18.3251C73.6436 18.6576 74.121 19.1617 74.432 19.8375C74.7431 20.5026 74.8718 21.3446 74.8182 22.3637H67.7547C67.8083 22.8142 67.9531 23.2218 68.1891 23.5865C68.4358 23.9405 68.7684 24.2194 69.1867 24.4232C69.605 24.6163 70.0931 24.7128 70.6509 24.7128C71.273 24.7128 71.7933 24.5894 72.2116 24.3427C72.6407 24.096 72.9196 23.7689 73.0483 23.3612ZM70.5704 19.2583C69.841 19.2583 69.2403 19.4406 68.7684 19.8053C68.2964 20.1593 67.9907 20.6152 67.8512 21.173H73.0161C72.9732 20.5723 72.7319 20.1057 72.2921 19.7732C71.8523 19.4299 71.2784 19.2583 70.5704 19.2583ZM79.1786 26.177C78.4492 26.177 77.7788 26 77.1673 25.646C76.5666 25.292 76.0839 24.804 75.7192 24.1818C75.3653 23.549 75.1883 22.8249 75.1883 22.0097C75.1883 21.173 75.3706 20.4436 75.7353 19.8214C76.1 19.1886 76.5935 18.6951 77.2156 18.3412C77.8378 17.9872 78.535 17.8102 79.3073 17.8102C80.1654 17.8102 80.8466 17.9979 81.3507 18.3733C81.8549 18.7488 82.2142 19.2529 82.4288 19.8858C82.6433 20.5187 82.7506 21.2266 82.7506 22.0097C82.7506 22.4495 82.6862 22.9161 82.5575 23.4095C82.4288 23.8922 82.225 24.3427 81.9461 24.7611C81.6779 25.1794 81.3132 25.5227 80.8519 25.7908C80.4014 26.0483 79.8436 26.177 79.1786 26.177ZM79.7256 24.6967C80.3263 24.6967 80.8359 24.5841 81.2542 24.3588C81.6833 24.1228 82.0051 23.801 82.2196 23.3934C82.4449 22.9858 82.5575 22.5246 82.5575 22.0097C82.5575 21.4412 82.4449 20.9585 82.2196 20.5616C81.9943 20.154 81.6725 19.8429 81.2542 19.6284C80.8359 19.4031 80.3263 19.2905 79.7256 19.2905C78.8675 19.2905 78.2025 19.5425 77.7305 20.0467C77.2585 20.5509 77.0225 21.2052 77.0225 22.0097C77.0225 22.5353 77.1352 23.0019 77.3604 23.4095C77.5964 23.8171 77.9182 24.1336 78.3258 24.3588C78.7334 24.5841 79.2 24.6967 79.7256 24.6967ZM82.5575 17.9872H84.3596V26H82.6862C82.6862 26 82.6755 25.8981 82.654 25.6943C82.6326 25.4905 82.6111 25.2438 82.5897 24.9541C82.5682 24.6538 82.5575 24.3695 82.5575 24.1014V17.9872ZM94.1425 22.8946C94.0782 23.5811 93.8583 24.1711 93.4828 24.6645C93.1074 25.158 92.6033 25.5334 91.9704 25.7908C91.3482 26.0483 90.6296 26.177 89.8143 26.177C88.9347 26.177 88.1356 26.0161 87.4169 25.6943C86.709 25.3725 86.1458 24.9005 85.7275 24.2784C85.3091 23.6562 85.1 22.9 85.1 22.0097C85.1 21.1194 85.3091 20.3631 85.7275 19.741C86.1458 19.1188 86.709 18.6415 87.4169 18.309C88.1356 17.9765 88.9347 17.8102 89.8143 17.8102C90.6296 17.8102 91.3482 17.9443 91.9704 18.2124C92.5925 18.4699 93.0913 18.8399 93.4668 19.3226C93.8422 19.8053 94.0621 20.39 94.1264 21.0765H92.4853C92.3029 20.5079 91.9704 20.0682 91.4877 19.7571C91.0157 19.4353 90.4579 19.2744 89.8143 19.2744C89.2887 19.2744 88.806 19.3816 88.3662 19.5962C87.9264 19.8 87.5725 20.1057 87.3043 20.5133C87.0468 20.9102 86.9181 21.409 86.9181 22.0097C86.9181 22.5996 87.0468 23.0984 87.3043 23.506C87.5725 23.9137 87.9264 24.2194 88.3662 24.4232C88.806 24.6163 89.2887 24.7128 89.8143 24.7128C90.5223 24.7128 91.1015 24.5573 91.552 24.2462C92.0133 23.9244 92.3297 23.4739 92.5014 22.8946H94.1425ZM94.3483 17.9872H100.012V19.4514H94.3483V17.9872ZM96.2791 15.8311H98.0812V26H96.2791V15.8311Z" fill="#515253"/>
</g>
<defs>
<clipPath id="clip0_14_286">
<rect width="102" height="45" fill="white"/>
</clipPath>
<clipPath id="clip1_14_286">
<rect width="44" height="44" fill="white" transform="translate(0 0.5)"/>
</clipPath>
<clipPath id="clip2_14_286">
<rect width="51" height="51" fill="white" transform="translate(-4 -3)"/>
</clipPath>
</defs>
</svg>
