<svg width="119" height="45" viewBox="0 0 119 45" fill="none" xmlns="http://www.w3.org/2000/svg">
<g clip-path="url(#clip0_15_311)">
<g clip-path="url(#clip1_15_311)">
<path d="M33.0965 11.8728C33.0721 11.6978 32.9173 11.601 32.7893 11.5903C32.6615 11.5798 29.958 11.3814 29.958 11.3814C29.958 11.3814 28.0804 9.5361 27.8743 9.33186C27.6681 9.12773 27.2654 9.18982 27.1091 9.23537C27.0861 9.24208 26.6989 9.36038 26.0584 9.5566C25.4312 7.76992 24.3242 6.12804 22.3769 6.12804C22.3231 6.12804 22.2678 6.1302 22.2124 6.13331C21.6586 5.40826 20.9726 5.09326 20.38 5.09326C15.8437 5.09326 13.6764 10.707 12.9969 13.5598C11.2342 14.1005 9.98199 14.4849 9.82204 14.5346C8.83813 14.8402 8.80701 14.8708 8.67782 15.7886C8.58059 16.4835 6.00615 36.1924 6.00615 36.1924L26.0667 39.9132L36.9362 37.5855C36.9362 37.5855 33.1204 12.0478 33.0965 11.8728ZM24.9496 9.89605L23.2522 10.4161C23.2528 10.2977 23.2534 10.1812 23.2534 10.0538C23.2534 8.94338 23.0977 8.04932 22.8479 7.34057C23.8513 7.46523 24.5195 8.59542 24.9496 9.89605ZM21.6032 7.56076C21.8821 8.25273 22.0635 9.2458 22.0635 10.5859C22.0635 10.6544 22.0629 10.7171 22.0623 10.7805C20.9584 11.119 19.7588 11.4865 18.5566 11.8552C19.2317 9.27624 20.497 8.03062 21.6032 7.56076ZM20.2554 6.29777C20.4512 6.29777 20.6484 6.36357 20.8372 6.49218C19.3834 7.16941 17.825 8.87506 17.167 12.2812L14.3959 13.1308C15.1667 10.5328 16.9971 6.29777 20.2554 6.29777Z" fill="#515253"/>
<path d="M32.7893 11.5904C32.6616 11.5798 29.958 11.3815 29.958 11.3815C29.958 11.3815 28.0804 9.53617 27.8743 9.33192C27.7972 9.25593 27.6932 9.21698 27.5845 9.2002L26.0677 39.9131L36.9362 37.5856C36.9362 37.5856 33.1205 12.0479 33.0965 11.8729C33.0721 11.6979 32.9173 11.6011 32.7893 11.5904Z" fill="#2B2B2B"/>
<path d="M22.3769 17.5358L21.0366 21.4824C21.0366 21.4824 19.8624 20.862 18.4229 20.862C16.3127 20.862 16.2065 22.173 16.2065 22.5033C16.2065 24.3058 20.9529 24.9965 20.9529 29.2185C20.9529 32.5403 18.8247 34.6792 15.9551 34.6792C12.5115 34.6792 10.7505 32.5577 10.7505 32.5577L11.6725 29.5419C11.6725 29.5419 13.4827 31.0804 15.0101 31.0804C16.0082 31.0804 16.4142 30.3024 16.4142 29.7341C16.4142 27.3828 12.5202 27.2779 12.5202 23.4144C12.5202 20.1626 14.8779 17.0159 19.6372 17.0159C21.4709 17.0159 22.3769 17.5358 22.3769 17.5358Z" fill="white"/>
</g>
<path d="M54.5632 22.5406H56.3491C56.392 22.9375 56.5476 23.2969 56.8158 23.6187C57.0946 23.9298 57.4594 24.1765 57.9099 24.3588C58.3711 24.5304 58.8967 24.6163 59.4867 24.6163C60.0123 24.6163 60.4467 24.5519 60.79 24.4232C61.1332 24.2945 61.3853 24.1175 61.5462 23.8922C61.7178 23.6562 61.8037 23.3827 61.8037 23.0716C61.8037 22.7605 61.7017 22.5192 61.4979 22.3476C61.3049 22.1652 61.0045 22.015 60.5969 21.897C60.1893 21.7683 59.669 21.645 59.0362 21.527C58.5106 21.4304 58.001 21.3017 57.5076 21.1408C57.0142 20.9799 56.569 20.7761 56.1722 20.5294C55.786 20.2827 55.4803 19.9823 55.255 19.6284C55.0298 19.2637 54.9171 18.8346 54.9171 18.3412C54.9171 17.7834 55.0727 17.2792 55.3837 16.8287C55.7055 16.3782 56.1775 16.0242 56.7997 15.7668C57.4218 15.5093 58.178 15.3806 59.0684 15.3806C60.4306 15.3806 61.4711 15.697 62.1898 16.3299C62.9085 16.9521 63.2571 17.7995 63.2357 18.8721H61.4819C61.4497 18.1963 61.203 17.7083 60.7417 17.4079C60.2805 17.1076 59.6959 16.9574 58.9879 16.9574C58.355 16.9574 57.8241 17.07 57.395 17.2953C56.9659 17.5206 56.7514 17.8853 56.7514 18.3894C56.7514 18.604 56.7997 18.7917 56.8962 18.9526C57.0035 19.1028 57.1751 19.2422 57.4111 19.3709C57.6471 19.4889 57.9689 19.6069 58.3765 19.7249C58.7948 19.8322 59.3043 19.9502 59.905 20.0789C60.4199 20.1647 60.9026 20.2827 61.3531 20.4329C61.8037 20.583 62.1952 20.7707 62.5277 20.996C62.871 21.2213 63.1391 21.5109 63.3322 21.8649C63.5253 22.2188 63.6218 22.6533 63.6218 23.1682C63.6218 23.7581 63.4716 24.2837 63.1713 24.745C62.871 25.1955 62.4097 25.5548 61.7876 25.823C61.1761 26.0804 60.3824 26.2092 59.4062 26.2092C58.6661 26.2092 58.0171 26.1234 57.4594 25.9517C56.9123 25.7694 56.4457 25.5388 56.0595 25.2599C55.6734 24.9702 55.3623 24.6592 55.1263 24.3266C54.901 23.9941 54.7401 23.6723 54.6436 23.3612C54.5578 23.0394 54.531 22.7659 54.5632 22.5406ZM71.1792 26V21.3661C71.1792 20.937 71.1041 20.583 70.954 20.3041C70.8145 20.0145 70.5946 19.7946 70.2943 19.6444C69.9939 19.4943 69.597 19.4192 69.1036 19.4192C68.6102 19.4192 68.1597 19.5265 67.752 19.741C67.3444 19.9448 67.0119 20.2183 66.7545 20.5616C66.497 20.9048 66.3469 21.2856 66.3039 21.704L66.2879 20.8029C66.3415 20.4168 66.4595 20.0467 66.6418 19.6927C66.8242 19.328 67.0655 19.0062 67.3659 18.7273C67.6662 18.4484 68.0202 18.2285 68.4278 18.0676C68.8354 17.896 69.286 17.8102 69.7794 17.8102C70.2406 17.8102 70.6643 17.8745 71.0505 18.0033C71.4474 18.132 71.7853 18.3251 72.0642 18.5825C72.3538 18.8292 72.5737 19.1403 72.7239 19.5157C72.8848 19.8804 72.9652 20.3041 72.9652 20.7868V26H71.1792ZM64.6145 26V14.7692H66.4005V26H64.6145ZM78.4092 26.177C77.5188 26.177 76.7197 26.0161 76.0117 25.6943C75.3038 25.3725 74.746 24.9005 74.3384 24.2784C73.9308 23.6562 73.727 22.9 73.727 22.0097C73.727 21.1301 73.9308 20.3792 74.3384 19.7571C74.746 19.1242 75.3038 18.6415 76.0117 18.309C76.7197 17.9765 77.5188 17.8102 78.4092 17.8102C79.2995 17.8102 80.0932 17.9765 80.7905 18.309C81.4877 18.6415 82.0348 19.1242 82.4317 19.7571C82.8393 20.3792 83.0431 21.1301 83.0431 22.0097C83.0431 22.9 82.8393 23.6562 82.4317 24.2784C82.0348 24.9005 81.4877 25.3725 80.7905 25.6943C80.0932 26.0161 79.2995 26.177 78.4092 26.177ZM78.4092 24.7128C78.924 24.7128 79.396 24.6109 79.8251 24.4071C80.2541 24.2033 80.592 23.8976 80.8388 23.49C81.0962 23.0823 81.2249 22.5889 81.2249 22.0097C81.2249 21.4304 81.0962 20.937 80.8388 20.5294C80.592 20.1218 80.2541 19.8107 79.8251 19.5962C79.4067 19.3709 78.9348 19.2583 78.4092 19.2583C77.8836 19.2583 77.4062 19.3656 76.9771 19.5801C76.5481 19.7946 76.1995 20.1057 75.9313 20.5133C75.6739 20.9209 75.5451 21.4197 75.5451 22.0097C75.5451 22.5889 75.6739 23.0823 75.9313 23.49C76.1887 23.8976 76.532 24.2033 76.9611 24.4071C77.4009 24.6109 77.8836 24.7128 78.4092 24.7128ZM88.9858 26.177C88.3315 26.177 87.7737 26.0483 87.3125 25.7908C86.8619 25.5334 86.4972 25.1955 86.2183 24.7772C85.9502 24.3481 85.7517 23.8922 85.623 23.4095C85.4943 22.9161 85.4299 22.4495 85.4299 22.0097C85.4299 21.4197 85.4889 20.8727 85.6069 20.3685C85.7356 19.8643 85.9341 19.4246 86.2022 19.0491C86.4811 18.663 86.8458 18.3626 87.2964 18.1481C87.7576 17.9228 88.3208 17.8102 88.9858 17.8102C89.7367 17.8102 90.4125 17.9925 91.0132 18.3572C91.6139 18.7112 92.0912 19.2047 92.4452 19.8375C92.7992 20.4597 92.9761 21.1837 92.9761 22.0097C92.9761 22.8356 92.7938 23.565 92.4291 24.1979C92.0751 24.8201 91.5978 25.3081 90.9971 25.6621C90.3964 26.0054 89.726 26.177 88.9858 26.177ZM88.4548 24.6967C88.9912 24.6967 89.4632 24.5841 89.8708 24.3588C90.2784 24.1336 90.5948 23.8171 90.8201 23.4095C91.0453 23.0019 91.158 22.5353 91.158 22.0097C91.158 21.2052 90.922 20.5509 90.45 20.0467C89.978 19.5318 89.313 19.2744 88.4548 19.2744C87.9185 19.2744 87.4358 19.387 87.0067 19.6123C86.5777 19.8375 86.2398 20.154 85.9931 20.5616C85.7464 20.9585 85.623 21.4412 85.623 22.0097C85.623 22.5246 85.7356 22.9858 85.9609 23.3934C86.1862 23.801 86.508 24.1228 86.9263 24.3588C87.3446 24.5841 87.8542 24.6967 88.4548 24.6967ZM83.837 17.9872H85.5426L85.623 19.9502V29.218H83.837V17.9872ZM95.8561 14.5922V16.3138H93.7162V14.5922H95.8561ZM93.8771 17.9872H95.6791V26H93.8771V17.9872ZM96.4507 18.0837H102.259V19.5318H96.4507V18.0837ZM101.069 14.7692H102.388V16.3138H101.39C101.09 16.3031 100.827 16.3353 100.602 16.4104C100.387 16.4854 100.216 16.6249 100.087 16.8287C99.969 17.0325 99.91 17.3221 99.91 17.6976V26H98.108V17.5367C98.108 16.8931 98.226 16.3675 98.4619 15.9598C98.6979 15.5522 99.0358 15.2519 99.4756 15.0588C99.9261 14.8657 100.457 14.7692 101.069 14.7692ZM102.069 17.9872H103.984L107.218 25.6782L105.673 26L102.069 17.9872ZM110.999 17.9872L105.85 29.218H103.968L106.172 24.8254L109.084 17.9872H110.999Z" fill="#515253"/>
</g>
<defs>
<clipPath id="clip0_15_311">
<rect width="119" height="45" fill="white"/>
</clipPath>
<clipPath id="clip1_15_311">
<rect width="31" height="35" fill="white" transform="translate(6 5)"/>
</clipPath>
</defs>
</svg>
