<svg width="50" height="41" viewBox="0 0 50 41" fill="none" xmlns="http://www.w3.org/2000/svg">
<path d="M5.535 33.48C4.995 33.33 4.56 33.195 4.23 33.075C3.9 32.985 3.735 32.94 3.735 32.94C3.795 32.79 3.765 32.655 3.645 32.535C3.555 32.415 3.345 32.34 3.015 32.31C2.565 32.04 2.145 31.695 1.755 31.275C1.395 30.885 1.095 30.495 0.855 30.105C0.615 29.715 0.435 29.385 0.315 29.115C0.105 28.665 8.9407e-08 28.395 8.9407e-08 28.305C0.0299997 28.185 0.21 28.05 0.54 27.9C0.87 27.66 1.11 27.585 1.26 27.675C1.44 27.765 1.65 28.065 1.89 28.575C2.28 29.265 2.94 29.79 3.87 30.15C4.83 30.51 5.895 30.675 7.065 30.645C8.265 30.585 9.405 30.315 10.485 29.835C11.595 29.385 12.285 28.92 12.555 28.44C12.855 27.93 12.75 27.285 12.24 26.505C12.15 26.265 12.045 26.07 11.925 25.92C11.805 25.77 11.61 25.575 11.34 25.335C11.1 25.095 10.695 24.705 10.125 24.165C9.675 23.955 9.255 23.76 8.865 23.58C8.505 23.4 8.115 23.205 7.695 22.995C7.215 22.755 6.63 22.41 5.94 21.96C5.28 21.48 4.65 20.955 4.05 20.385C3.45 19.815 3.015 19.29 2.745 18.81C2.265 18.36 1.905 17.745 1.665 16.965C1.425 16.155 1.335 15.3 1.395 14.4C1.455 13.5 1.68 12.69 2.07 11.97C2.25 11.55 2.55 11.04 2.97 10.44C3.42 9.81001 3.915 9.18001 4.455 8.55001C4.995 7.92001 5.52 7.35001 6.03 6.84001C6.54 6.33001 6.96 5.97001 7.29 5.76001C7.53 5.52001 7.785 5.28001 8.055 5.04001C8.325 4.77001 8.46 4.63501 8.46 4.63501C8.49 4.48501 8.535 4.41001 8.595 4.41001C8.685 4.41001 8.73 4.41001 8.73 4.41001C8.88 4.32001 9.21 4.17001 9.72 3.96001C10.23 3.75001 10.785 3.36001 11.385 2.79001C13.395 1.83001 15.03 1.12501 16.29 0.67501C17.55 0.225011 18.585 1.07288e-05 19.395 1.07288e-05C20.145 0.0300103 20.82 0.21001 21.42 0.540009C22.05 0.840009 22.56 1.24501 22.95 1.75501C23.37 2.26501 23.625 2.88001 23.715 3.60001C23.925 4.32001 23.865 5.16001 23.535 6.12001C23.205 7.05001 22.71 7.93501 22.05 8.77501C21.42 9.58501 20.73 10.2 19.98 10.62C19.14 10.98 18.57 11.145 18.27 11.115C18 11.055 17.88 10.74 17.91 10.17C17.91 9.93001 17.985 9.64501 18.135 9.31501C18.315 8.98501 18.78 8.40001 19.53 7.56001C20.49 6.15001 21.075 5.02501 21.285 4.18501C21.495 3.34501 21.3 2.88001 20.7 2.79001C20.52 2.73001 20.19 2.73001 19.71 2.79001C19.26 2.85001 18.75 2.94001 18.18 3.06001C17.64 3.15001 17.175 3.25501 16.785 3.37501C16.395 3.46501 16.2 3.54001 16.2 3.60001C16.2 3.60001 16.2 3.64501 16.2 3.73501C16.2 3.82501 16.14 3.85501 16.02 3.82501C15.96 3.82501 15.705 3.94501 15.255 4.18501C14.805 4.42501 14.265 4.74001 13.635 5.13001C13.005 5.52001 12.375 5.91001 11.745 6.30001C11.115 6.69001 10.575 7.03501 10.125 7.33501C9.705 7.60501 9.48 7.77001 9.45 7.83001C9.39 8.16001 9.045 8.46001 8.415 8.73001C7.815 9.09001 7.26 9.61501 6.75 10.305C6.27 10.995 5.73 11.85 5.13 12.87C4.62 13.56 4.26 14.31 4.05 15.12C3.84 15.9 3.84 16.53 4.05 17.01C4.2 17.49 4.665 18.105 5.445 18.855C6.225 19.605 7.2 20.325 8.37 21.015C9.39 21.585 10.305 22.155 11.115 22.725C11.925 23.265 12.585 23.79 13.095 24.3C13.635 24.81 13.995 25.26 14.175 25.65C14.535 26.16 14.79 26.685 14.94 27.225C15.12 27.735 15.21 28.23 15.21 28.71C15.24 29.19 15.195 29.625 15.075 30.015C14.865 30.495 14.49 30.99 13.95 31.5C13.44 32.01 13.005 32.25 12.645 32.22C12.315 32.31 12.06 32.415 11.88 32.535C11.73 32.655 11.55 32.76 11.34 32.85C11.13 32.97 10.68 33.09 9.99 33.21C9.33 33.33 8.595 33.405 7.785 33.435C6.975 33.495 6.225 33.51 5.535 33.48ZM23.1553 30.555C22.7653 30.555 22.4503 30.48 22.2103 30.33C22.0003 30.18 21.7303 29.97 21.4003 29.7C20.8303 29.1 20.4253 28.53 20.1853 27.99C19.9453 27.42 19.8703 26.88 19.9603 26.37C20.0503 26.13 20.0803 25.905 20.0503 25.695C20.0503 25.455 20.0503 25.335 20.0503 25.335C19.9003 25.185 19.8553 25.095 19.9153 25.065C19.9753 25.005 20.0353 24.915 20.0953 24.795C20.2753 24.795 20.3353 24.63 20.2753 24.3C20.2153 24.06 20.3353 23.535 20.6353 22.725C20.9353 21.915 21.3103 21.15 21.7603 20.43C21.9403 20.13 22.2103 19.74 22.5703 19.26C22.9303 18.75 23.3203 18.255 23.7403 17.775C24.1903 17.265 24.5953 16.86 24.9553 16.56C25.7053 15.93 26.3653 15.465 26.9353 15.165C27.5053 14.865 28.1203 14.64 28.7803 14.49C29.4403 14.34 29.8903 14.265 30.1303 14.265C30.4003 14.265 30.7603 14.505 31.2103 14.985C31.9003 15.285 32.3953 15.645 32.6953 16.065C33.0253 16.485 33.2353 17.1 33.3253 17.91C33.4153 18.81 33.3403 19.845 33.1003 21.015C32.8903 22.155 32.1853 23.58 30.9853 25.29C30.2353 26.37 29.5453 27.18 28.9153 27.72C28.2853 28.23 27.5353 28.74 26.6653 29.25C26.0353 29.67 25.4653 29.985 24.9553 30.195C24.4453 30.375 23.8453 30.495 23.1553 30.555ZM27.4753 25.785C28.1953 24.975 28.7653 24.21 29.1853 23.49C29.6353 22.77 30.0553 21.855 30.4453 20.745C30.5653 20.415 30.6403 20.01 30.6703 19.53C30.7003 19.02 30.6853 18.555 30.6253 18.135C30.5953 17.685 30.4903 17.43 30.3103 17.37C29.9503 17.16 29.5153 17.1 29.0053 17.19C28.4953 17.25 27.9403 17.535 27.3403 18.045C26.4103 18.825 25.6003 19.8 24.9103 20.97C24.2203 22.11 23.5453 23.415 22.8853 24.885C22.4353 25.965 22.3303 26.835 22.5703 27.495C22.8403 28.125 23.3953 28.35 24.2353 28.17C25.1053 27.96 26.1853 27.165 27.4753 25.785ZM34.5301 40.185C33.8101 40.395 33.0151 40.425 32.1451 40.275C31.3051 40.155 30.5701 39.9 29.9401 39.51C29.2801 39.12 28.9051 38.685 28.8151 38.205C28.7851 38.025 28.8451 37.83 28.9951 37.62C29.1151 37.41 29.2801 37.26 29.4901 37.17C29.6701 37.11 29.8351 37.17 29.9851 37.35C30.2251 37.5 30.6601 37.68 31.2901 37.89C31.9201 38.13 32.6251 38.175 33.4051 38.025C34.0951 37.875 34.7701 37.47 35.4301 36.81C36.1201 36.15 36.6751 35.535 37.0951 34.965C37.3351 34.605 37.7401 33.96 38.3101 33.03C38.8801 32.1 39.4651 31.08 40.0651 29.97C40.6951 28.83 41.2201 27.78 41.6401 26.82C41.7301 26.58 41.8351 26.295 41.9551 25.965C42.0751 25.635 42.2251 25.365 42.4051 25.155C42.5851 24.795 42.7351 24.465 42.8551 24.165C43.0051 23.835 43.0951 23.61 43.1251 23.49C43.1551 23.34 43.2901 23.04 43.5301 22.59C43.7701 22.14 43.9951 21.69 44.2051 21.24C44.3551 20.79 44.5801 20.13 44.8801 19.26C45.1801 18.39 45.4801 17.685 45.7801 17.145C46.1401 16.455 46.4251 15.9 46.6351 15.48C46.8751 15.03 47.1301 14.76 47.4001 14.67C47.6701 14.46 47.8501 14.355 47.9401 14.355C48.0601 14.355 48.2851 14.445 48.6151 14.625C48.9751 14.985 49.2001 15.345 49.2901 15.705C49.3801 16.035 49.3351 16.455 49.1551 16.965C49.0051 17.445 48.7051 18.105 48.2551 18.945C48.0151 19.665 47.7451 20.325 47.4451 20.925C47.1751 21.495 46.9651 21.87 46.8151 22.05C46.6651 22.41 46.4851 22.815 46.2751 23.265C46.0951 23.685 45.9301 24.075 45.7801 24.435C45.2401 25.635 44.7751 26.61 44.3851 27.36C43.9951 28.11 43.6501 28.8 43.3501 29.43C43.0501 30.06 42.7351 30.795 42.4051 31.635C41.7151 32.745 41.0401 33.795 40.3801 34.785C39.7501 35.805 39.0751 36.75 38.3551 37.62C38.0551 37.89 37.6801 38.205 37.2301 38.565C36.7801 38.925 36.3151 39.255 35.8351 39.555C35.3851 39.855 34.9501 40.065 34.5301 40.185ZM40.6051 29.385C40.1551 29.325 39.7051 29.055 39.2551 28.575C38.8351 28.095 38.5051 27.585 38.2651 27.045C38.0251 26.505 37.9351 26.115 37.9951 25.875C37.9951 25.725 37.9951 25.605 37.9951 25.515C37.9951 25.425 37.9951 25.38 37.9951 25.38C37.8151 25.38 37.6501 25.155 37.5001 24.705C37.3801 24.255 37.2901 23.67 37.2301 22.95C37.1701 22.23 37.1251 21.465 37.0951 20.655C37.0951 19.845 37.1251 19.08 37.1851 18.36C37.3051 17.85 37.3651 17.295 37.3651 16.695C37.3651 16.065 37.3801 15.57 37.4101 15.21C37.3801 14.73 37.4251 14.415 37.5451 14.265C37.6651 14.085 37.7851 13.95 37.9051 13.86C38.7451 13.5 39.3001 13.725 39.5701 14.535C39.8701 15.315 39.9451 16.785 39.7951 18.945C39.7351 20.145 39.7351 21.345 39.7951 22.545C39.8551 23.745 40.0201 24.795 40.2901 25.695C40.5901 26.595 40.9951 27.21 41.5051 27.54C41.7151 27.66 41.8201 27.825 41.8201 28.035C41.8201 28.245 41.7601 28.47 41.6401 28.71C41.5201 28.92 41.3551 29.1 41.1451 29.25C40.9651 29.37 40.7851 29.415 40.6051 29.385Z" fill="#5D4FB6"/>
</svg>
