<svg width="127" height="39" viewBox="0 0 127 39" fill="none" xmlns="http://www.w3.org/2000/svg">
<g clip-path="url(#clip0_14_260)">
<g clip-path="url(#clip1_14_260)">
<path d="M11.0625 16.4062C12.5208 10.5729 16.1667 7.65625 22 7.65625C30.75 7.65625 31.8438 14.2187 36.2188 15.3125C39.1354 16.0417 41.6875 14.9479 43.875 12.0312C42.4167 17.8646 38.7708 20.7812 32.9375 20.7812C24.1875 20.7812 23.0938 14.2188 18.7188 13.125C15.8021 12.3958 13.25 13.4896 11.0625 16.4062ZM0.125 29.5312C1.58333 23.6979 5.22917 20.7812 11.0625 20.7812C19.8125 20.7812 20.9062 27.3437 25.2812 28.4375C28.1979 29.1667 30.75 28.0729 32.9375 25.1562C31.4792 30.9896 27.8333 33.9062 22 33.9062C13.25 33.9062 12.1562 27.3438 7.78125 26.25C4.86458 25.5208 2.3125 26.6146 0.125 29.5312Z" fill="#515253"/>
</g>
<path d="M54.2896 12.5737H64.2976V14.1505H54.2896V12.5737ZM58.3926 13.9574H60.2107V23H58.3926V13.9574ZM67.0042 23.177C66.2748 23.177 65.6044 23 64.993 22.646C64.3923 22.292 63.9096 21.804 63.5449 21.1818C63.1909 20.549 63.0139 19.8249 63.0139 19.0097C63.0139 18.173 63.1963 17.4436 63.561 16.8214C63.9257 16.1886 64.4191 15.6951 65.0413 15.3412C65.6634 14.9872 66.3606 14.8102 67.133 14.8102C67.9911 14.8102 68.6722 14.9979 69.1764 15.3733C69.6805 15.7488 70.0399 16.2529 70.2544 16.8858C70.469 17.5187 70.5762 18.2266 70.5762 19.0097C70.5762 19.4495 70.5119 19.9161 70.3831 20.4095C70.2544 20.8922 70.0506 21.3427 69.7717 21.7611C69.5036 22.1794 69.1388 22.5227 68.6776 22.7908C68.2271 23.0483 67.6693 23.177 67.0042 23.177ZM67.5513 21.6967C68.152 21.6967 68.6615 21.5841 69.0799 21.3588C69.5089 21.1228 69.8307 20.801 70.0453 20.3934C70.2705 19.9858 70.3831 19.5246 70.3831 19.0097C70.3831 18.4412 70.2705 17.9585 70.0453 17.5616C69.82 17.154 69.4982 16.8429 69.0799 16.6284C68.6615 16.4031 68.152 16.2905 67.5513 16.2905C66.6932 16.2905 66.0281 16.5425 65.5561 17.0467C65.0842 17.5509 64.8482 18.2052 64.8482 19.0097C64.8482 19.5353 64.9608 20.0019 65.1861 20.4095C65.4221 20.8171 65.7439 21.1336 66.1515 21.3588C66.5591 21.5841 67.0257 21.6967 67.5513 21.6967ZM70.3831 14.9872H72.1852V23H70.5119C70.5119 23 70.5011 22.8981 70.4797 22.6943C70.4582 22.4905 70.4368 22.2438 70.4153 21.9541C70.3939 21.6538 70.3831 21.3695 70.3831 21.1014V14.9872ZM75.4357 11.5922V13.3138H73.2957V11.5922H75.4357ZM73.4566 14.9872H75.2587V23H73.4566V14.9872ZM76.7543 11.7692H78.5403V23H76.7543V11.7692ZM89.4631 21.6484L88.9321 21.6323L91.2652 14.9872H93.2282L90.1067 23H88.4173L85.9233 16.3226H86.4865L83.9282 23H82.2387L79.1816 14.9872H81.1446L83.4133 21.6484H82.8823L85.1671 14.9872H87.2588L89.4631 21.6484ZM95.8058 11.5922V13.3138H93.6659V11.5922H95.8058ZM93.8268 14.9872H95.6289V23H93.8268V14.9872ZM96.9636 14.9872H98.7496V23H96.9636V14.9872ZM102.128 14.8102C102.59 14.8102 103.013 14.8745 103.4 15.0033C103.796 15.132 104.134 15.3304 104.413 15.5986C104.703 15.856 104.923 16.1778 105.073 16.564C105.234 16.9502 105.314 17.406 105.314 17.9316V23H103.528V18.2856C103.528 17.6313 103.367 17.1486 103.046 16.8375C102.735 16.5157 102.241 16.3548 101.565 16.3548C101.05 16.3548 100.578 16.4675 100.149 16.6927C99.731 16.9073 99.3878 17.1915 99.1196 17.5455C98.8515 17.8887 98.6959 18.2695 98.653 18.6879L98.6369 17.819C98.6906 17.4221 98.8086 17.0467 98.9909 16.6927C99.1733 16.328 99.4146 16.0062 99.715 15.7273C100.015 15.4377 100.369 15.2124 100.777 15.0515C101.185 14.8906 101.635 14.8102 102.128 14.8102ZM110.054 23.177C109.314 23.177 108.638 23 108.027 22.646C107.426 22.292 106.949 21.804 106.595 21.1818C106.241 20.549 106.064 19.8249 106.064 19.0097C106.064 18.173 106.236 17.4436 106.579 16.8214C106.933 16.1886 107.405 15.6951 107.995 15.3412C108.596 14.9872 109.282 14.8102 110.054 14.8102C110.73 14.8102 111.299 14.9228 111.76 15.1481C112.221 15.3626 112.586 15.663 112.854 16.0491C113.122 16.4246 113.315 16.8643 113.433 17.3685C113.562 17.8727 113.626 18.4197 113.626 19.0097C113.626 19.4495 113.562 19.9161 113.433 20.4095C113.305 20.8922 113.101 21.3427 112.822 21.7611C112.554 22.1794 112.189 22.5227 111.728 22.7908C111.277 23.0483 110.719 23.177 110.054 23.177ZM110.601 21.6967C111.202 21.6967 111.712 21.5841 112.13 21.3588C112.559 21.1228 112.881 20.801 113.095 20.3934C113.321 19.9858 113.433 19.5246 113.433 19.0097C113.433 18.4412 113.321 17.9585 113.095 17.5616C112.87 17.154 112.548 16.8375 112.13 16.6123C111.712 16.387 111.202 16.2744 110.601 16.2744C109.743 16.2744 109.078 16.5318 108.606 17.0467C108.134 17.5509 107.898 18.2052 107.898 19.0097C107.898 19.5353 108.011 20.0019 108.236 20.4095C108.472 20.8171 108.794 21.1336 109.202 21.3588C109.609 21.5841 110.076 21.6967 110.601 21.6967ZM113.433 11.7692H115.235V23H113.562C113.541 22.7533 113.514 22.4476 113.482 22.0829C113.449 21.7182 113.433 21.391 113.433 21.1014V11.7692Z" fill="#515253"/>
</g>
<defs>
<clipPath id="clip0_14_260">
<rect width="127" height="39" fill="white"/>
</clipPath>
<clipPath id="clip1_14_260">
<rect width="44" height="44" fill="white" transform="translate(0 -2.5)"/>
</clipPath>
</defs>
</svg>
