<svg width="127" height="23" viewBox="0 0 127 23" fill="none" xmlns="http://www.w3.org/2000/svg">
<g clip-path="url(#clip0_14_260)">
<g clip-path="url(#clip1_14_260)">
<path d="M11.0625 8.40625C12.5208 2.57292 16.1667 -0.34375 22 -0.34375C30.75 -0.34375 31.8438 6.21875 36.2188 7.3125C39.1354 8.04167 41.6875 6.94792 43.875 4.03125C42.4167 9.86458 38.7708 12.7812 32.9375 12.7812C24.1875 12.7812 23.0938 6.21875 18.7188 5.125C15.8021 4.39583 13.25 5.48958 11.0625 8.40625ZM0.125 21.5312C1.58333 15.6979 5.22917 12.7812 11.0625 12.7812C19.8125 12.7812 20.9062 19.3437 25.2812 20.4375C28.1979 21.1667 30.75 20.0729 32.9375 17.1562C31.4792 22.9896 27.8333 25.9062 22 25.9062C13.25 25.9062 12.1562 19.3438 7.78125 18.25C4.86458 17.5208 2.3125 18.6146 0.125 21.5312Z" fill="#515253"/>
</g>
<path d="M54.2896 4.57368H64.2976V6.1505H54.2896V4.57368ZM58.3926 5.95742H60.2107V15H58.3926V5.95742ZM67.0042 15.177C66.2748 15.177 65.6044 15 64.993 14.646C64.3923 14.292 63.9096 13.804 63.5449 13.1818C63.1909 12.549 63.0139 11.8249 63.0139 11.0097C63.0139 10.173 63.1963 9.44359 63.561 8.82144C63.9257 8.18857 64.4191 7.69514 65.0413 7.34116C65.6634 6.98718 66.3606 6.81019 67.133 6.81019C67.9911 6.81019 68.6722 6.99791 69.1764 7.37334C69.6805 7.74877 70.0399 8.25293 70.2544 8.8858C70.469 9.51867 70.5762 10.2266 70.5762 11.0097C70.5762 11.4495 70.5119 11.9161 70.3831 12.4095C70.2544 12.8922 70.0506 13.3427 69.7717 13.7611C69.5036 14.1794 69.1388 14.5227 68.6776 14.7908C68.2271 15.0483 67.6693 15.177 67.0042 15.177ZM67.5513 13.6967C68.152 13.6967 68.6615 13.5841 69.0799 13.3588C69.5089 13.1228 69.8307 12.801 70.0453 12.3934C70.2705 11.9858 70.3831 11.5246 70.3831 11.0097C70.3831 10.4412 70.2705 9.95847 70.0453 9.56158C69.82 9.15397 69.4982 8.84289 69.0799 8.62836C68.6615 8.4031 68.152 8.29047 67.5513 8.29047C66.6932 8.29047 66.0281 8.54255 65.5561 9.0467C65.0842 9.55085 64.8482 10.2052 64.8482 11.0097C64.8482 11.5353 64.9608 12.0019 65.1861 12.4095C65.4221 12.8171 65.7439 13.1336 66.1515 13.3588C66.5591 13.5841 67.0257 13.6967 67.5513 13.6967ZM70.3831 6.98718H72.1852V15H70.5119C70.5119 15 70.5011 14.8981 70.4797 14.6943C70.4582 14.4905 70.4368 14.2438 70.4153 13.9541C70.3939 13.6538 70.3831 13.3695 70.3831 13.1014V6.98718ZM75.4357 3.59219V5.31382H73.2957V3.59219H75.4357ZM73.4566 6.98718H75.2587V15H73.4566V6.98718ZM76.7543 3.76918H78.5403V15H76.7543V3.76918ZM89.4631 13.6484L88.9321 13.6323L91.2652 6.98718H93.2282L90.1067 15H88.4173L85.9233 8.32265H86.4865L83.9282 15H82.2387L79.1816 6.98718H81.1446L83.4133 13.6484H82.8823L85.1671 6.98718H87.2588L89.4631 13.6484ZM95.8058 3.59219V5.31382H93.6659V3.59219H95.8058ZM93.8268 6.98718H95.6289V15H93.8268V6.98718ZM96.9636 6.98718H98.7496V15H96.9636V6.98718ZM102.128 6.81019C102.59 6.81019 103.013 6.87455 103.4 7.00327C103.796 7.13199 104.134 7.33043 104.413 7.5986C104.703 7.85604 104.923 8.17784 105.073 8.564C105.234 8.95016 105.314 9.40604 105.314 9.93165V15H103.528V10.2856C103.528 9.6313 103.367 9.1486 103.046 8.83753C102.735 8.51573 102.241 8.35483 101.565 8.35483C101.05 8.35483 100.578 8.46746 100.149 8.69272C99.731 8.90725 99.3878 9.19151 99.1196 9.54549C98.8515 9.88874 98.6959 10.2695 98.653 10.6879L98.6369 9.81902C98.6906 9.42213 98.8086 9.0467 98.9909 8.69272C99.1733 8.32801 99.4146 8.00621 99.715 7.72732C100.015 7.4377 100.369 7.21244 100.777 7.05154C101.185 6.89064 101.635 6.81019 102.128 6.81019ZM110.054 15.177C109.314 15.177 108.638 15 108.027 14.646C107.426 14.292 106.949 13.804 106.595 13.1818C106.241 12.549 106.064 11.8249 106.064 11.0097C106.064 10.173 106.236 9.44359 106.579 8.82144C106.933 8.18857 107.405 7.69514 107.995 7.34116C108.596 6.98718 109.282 6.81019 110.054 6.81019C110.73 6.81019 111.299 6.92282 111.76 7.14808C112.221 7.36261 112.586 7.66296 112.854 8.04912C113.122 8.42455 113.315 8.86435 113.433 9.3685C113.562 9.87265 113.626 10.4197 113.626 11.0097C113.626 11.4495 113.562 11.9161 113.433 12.4095C113.305 12.8922 113.101 13.3427 112.822 13.7611C112.554 14.1794 112.189 14.5227 111.728 14.7908C111.277 15.0483 110.719 15.177 110.054 15.177ZM110.601 13.6967C111.202 13.6967 111.712 13.5841 112.13 13.3588C112.559 13.1228 112.881 12.801 113.095 12.3934C113.321 11.9858 113.433 11.5246 113.433 11.0097C113.433 10.4412 113.321 9.95847 113.095 9.56158C112.87 9.15397 112.548 8.83753 112.13 8.61227C111.712 8.38701 111.202 8.27438 110.601 8.27438C109.743 8.27438 109.078 8.53182 108.606 9.0467C108.134 9.55085 107.898 10.2052 107.898 11.0097C107.898 11.5353 108.011 12.0019 108.236 12.4095C108.472 12.8171 108.794 13.1336 109.202 13.3588C109.609 13.5841 110.076 13.6967 110.601 13.6967ZM113.433 3.76918H115.235V15H113.562C113.541 14.7533 113.514 14.4476 113.482 14.0829C113.449 13.7182 113.433 13.391 113.433 13.1014V3.76918Z" fill="#515253"/>
</g>
<defs>
<clipPath id="clip0_14_260">
<rect width="127" height="23" fill="white"/>
</clipPath>
<clipPath id="clip1_14_260">
<rect width="44" height="44" fill="white" transform="translate(0 -10.5)"/>
</clipPath>
</defs>
</svg>
